<svg xmlns="http://www.w3.org/2000/svg" version="1.1" xmlns:xlink="http://www.w3.org/1999/xlink" xmlns:svgjs="http://svgjs.dev/svgjs" width="1000" height="196" viewBox="0 0 1000 196"><g transform="matrix(1,0,0,1,-0.6060606060606801,0.2690899819099002)"><svg viewBox="0 0 396 78" data-background-color="#ffffff" preserveAspectRatio="xMidYMid meet" height="196" width="1000" xmlns="http://www.w3.org/2000/svg" xmlns:xlink="http://www.w3.org/1999/xlink"><g id="tight-bounds" transform="matrix(1,0,0,1,0.24000000000003752,-0.10708682953557513)"><svg viewBox="0 0 395.5199999999999 78.21417365907116" height="78.21417365907116" width="395.5199999999999"><g><svg viewBox="0 0 540.837091193951 106.95066285373835" height="78.21417365907116" width="395.5199999999999"><g></g><g transform="matrix(1,0,0,1,145.31709119395097,0.2660464250092929)"><svg viewBox="0 0 395.52 106.41857000371976" height="106.41857000371976" width="395.52"><g id="textblocktransform"><svg viewBox="0 0 395.52 106.41857000371976" height="106.41857000371976" width="395.52" id="textblock"><g><svg viewBox="0 0 395.52 75.3908713692946" height="75.3908713692946" width="395.52"><g transform="matrix(1,0,0,1,0,0)"><svg width="395.52" viewBox="3.35 -36.15 192.79 36.75" height="75.3908713692946" data-palette-color="url(#bbe06a28-3330-409e-8f1a-3dd962b24496)"></svg></g></svg></g><g transform="matrix(1,0,0,1,0,93.1888467186722)"><svg viewBox="0 0 232.209792 13.229723285047577" height="13.229723285047577" width="232.209792"><g transform="matrix(1,0,0,1,0,0)"><svg width="232.209792" viewBox="2.15 -37 824.87 47" height="13.229723285047577" data-palette-color="url(#215d7e78-c2d4-4dbd-9b7a-67f18c336421)"></svg></g></svg></g></svg></g></svg></g><g transform="matrix(1,0,0,1,0,0.2660464250093)"><svg viewBox="0 0 102.92231391173354 106.41857000371975" height="106.41857000371975" width="102.92231391173354"><g><svg xmlns="http://www.w3.org/2000/svg" xmlns:xlink="http://www.w3.org/1999/xlink" version="1.1" x="0" y="0" viewBox="7.487339512935998 6.066 84.025660487064 86.88" enable-background="new 0 0 100 100" xml:space="preserve" height="106.41857000371975" width="102.92231391173354" class="icon-icon-0" data-fill-palette-color="accent" id="icon-0"></svg></g></svg></g></svg></g><defs></defs><mask id="cdf712c3-5677-4fc2-83a6-c15b49826bcb"><g id="SvgjsG2656"><svg viewBox="0 0 395.5199999999999 78.21417365907116" height="78.21417365907116" width="395.5199999999999"><g><svg viewBox="0 0 540.837091193951 106.95066285373835" height="78.21417365907116" width="395.5199999999999"><g><rect width="6.798826583462241" height="106.95066285373835" x="120.72028926111113" y="0" fill="white" opacity="1" stroke-width="0" stroke="transparent" fill-opacity="1" class="rect-r$-0" rx="1%" id="SvgjsRect2655" data-palette-color="url(#bbe06a28-3330-409e-8f1a-3dd962b24496)"></rect></g><g transform="matrix(1,0,0,1,145.31709119395097,0.2660464250092929)"><svg viewBox="0 0 395.52 106.41857000371976" height="106.41857000371976" width="395.52"><g id="SvgjsG2654"><svg viewBox="0 0 395.52 106.41857000371976" height="106.41857000371976" width="395.52" id="SvgjsSvg2653"><g><svg viewBox="0 0 395.52 75.3908713692946" height="75.3908713692946" width="395.52"><g transform="matrix(1,0,0,1,0,0)"><svg width="395.52" viewBox="3.35 -36.15 192.79 36.75" height="75.3908713692946" data-palette-color="url(#bbe06a28-3330-409e-8f1a-3dd962b24496)"><path d="M3.35 0L3.35-34.3 14.65-34.3 19.45-15.4Q20-13.25 21.05-7.65L21.05-7.65 21.3-7.65Q22.2-13.5 22.7-15.4L22.7-15.4 27.5-34.3 38.3-34.3 38.3 0 31.05 0 31.05-21.85Q31.05-23.3 31.35-27.35L31.35-27.35 31.1-27.35 30.05-23.3 24.15 0 17.25 0 11.35-23.3 10.3-27.35 10.05-27.35Q10.35-23.15 10.35-21.85L10.35-21.85 10.35 0 3.35 0ZM56.9 0.6Q50.15 0.6 46.85-2.75 43.55-6.1 43.55-13.15L43.55-13.15Q43.55-20.2 46.85-23.55 50.15-26.9 56.9-26.9L56.9-26.9Q63.65-26.9 66.97-23.55 70.3-20.2 70.3-13.15L70.3-13.15Q70.3-6.1 66.97-2.75 63.65 0.6 56.9 0.6L56.9 0.6ZM56.9-5Q60.25-5 61.75-6.93 63.25-8.85 63.25-12.75L63.25-12.75 63.25-13.55Q63.25-17.45 61.75-19.38 60.25-21.3 56.9-21.3L56.9-21.3Q53.55-21.3 52.07-19.38 50.6-17.45 50.6-13.55L50.6-13.55 50.6-12.75Q50.6-8.85 52.07-6.93 53.55-5 56.9-5L56.9-5ZM87.45 0.6Q80.7 0.6 77.4-2.75 74.1-6.1 74.1-13.15L74.1-13.15Q74.1-20.2 77.4-23.55 80.7-26.9 87.45-26.9L87.45-26.9Q94.2-26.9 97.52-23.55 100.85-20.2 100.85-13.15L100.85-13.15Q100.85-6.1 97.52-2.75 94.2 0.6 87.45 0.6L87.45 0.6ZM87.45-5Q90.8-5 92.3-6.93 93.8-8.85 93.8-12.75L93.8-12.75 93.8-13.55Q93.8-17.45 92.3-19.38 90.8-21.3 87.45-21.3L87.45-21.3Q84.1-21.3 82.62-19.38 81.15-17.45 81.15-13.55L81.15-13.55 81.15-12.75Q81.15-8.85 82.62-6.93 84.1-5 87.45-5L87.45-5ZM112.99 0L103.19-26.3 110.34-26.3 114.44-15Q115.14-13.1 116.64-7.1L116.64-7.1 116.89-7.1Q118.29-12.75 119.09-15L119.09-15 123.14-26.3 130.09-26.3 120.24 0 112.99 0ZM134.04-29.65L134.04-36.15 140.89-36.15 140.89-29.65 134.04-29.65ZM134.04 0L134.04-26.3 140.89-26.3 140.89 0 134.04 0ZM158.84 0.6Q152.49 0.6 149.36-2.75 146.24-6.1 146.24-13.15L146.24-13.15Q146.24-20.2 149.36-23.55 152.49-26.9 158.84-26.9L158.84-26.9Q164.69-26.9 167.59-23.53 170.49-20.15 170.49-13.15L170.49-13.15 170.49-11.55 153.19-11.55Q153.29-8.05 154.59-6.38 155.89-4.7 158.94-4.7L158.94-4.7Q161.09-4.7 162.41-5.9 163.74-7.1 163.74-9.3L163.74-9.3 170.49-9.3Q170.49-4.35 167.29-1.88 164.09 0.6 158.84 0.6L158.84 0.6ZM153.29-16.1L163.39-16.1Q163.39-21.55 158.84-21.55L158.84-21.55Q156.24-21.55 154.91-20.2 153.59-18.85 153.29-16.1L153.29-16.1ZM173.29 0L173.29-3.05 185.74-20.7 174.04-20.7 174.04-26.3 195.69-26.3 195.69-23.3 183.19-5.6 196.14-5.6 196.14 0 173.29 0Z" opacity="1" transform="matrix(1,0,0,1,0,0)" fill="white" class="wordmark-text-0" id="SvgjsPath2652"></path></svg></g></svg></g><g transform="matrix(1,0,0,1,0,93.1888467186722)"><svg viewBox="0 0 232.209792 13.229723285047577" height="13.229723285047577" width="232.209792"><g transform="matrix(1,0,0,1,0,0)"><svg width="232.209792" viewBox="2.15 -37 824.87 47" height="13.229723285047577" data-palette-color="url(#215d7e78-c2d4-4dbd-9b7a-67f18c336421)"></svg></g></svg></g></svg></g></svg></g><g transform="matrix(1,0,0,1,0,0.2660464250093)"><svg viewBox="0 0 102.92231391173354 106.41857000371975" height="106.41857000371975" width="102.92231391173354"><g><svg xmlns="http://www.w3.org/2000/svg" xmlns:xlink="http://www.w3.org/1999/xlink" version="1.1" x="0" y="0" viewBox="7.487339512935998 6.066 84.025660487064 86.88" enable-background="new 0 0 100 100" xml:space="preserve" height="106.41857000371975" width="102.92231391173354" class="icon-icon-0" data-fill-palette-color="accent" id="SvgjsSvg2650"></svg></g></svg></g></svg></g><defs><mask></mask></defs></svg></g></mask><linearGradient x1="0" x2="1" y1="0.5" y2="0.5" id="bbe06a28-3330-409e-8f1a-3dd962b24496"><stop stop-color="#ffa62e" offset="0"></stop><stop stop-color="#f71b3d" offset="1"></stop></linearGradient><rect width="395.5199999999999" height="78.21417365907116" fill="url(#bbe06a28-3330-409e-8f1a-3dd962b24496)" mask="url(#cdf712c3-5677-4fc2-83a6-c15b49826bcb)" data-fill-palette-color="primary"></rect><mask id="356a651f-f9d0-4a0f-a124-dac83742e132"><g id="SvgjsG2667"><svg viewBox="0 0 395.5199999999999 78.21417365907116" height="78.21417365907116" width="395.5199999999999"><g><svg viewBox="0 0 540.837091193951 106.95066285373835" height="78.21417365907116" width="395.5199999999999"><g></g><g transform="matrix(1,0,0,1,145.31709119395097,0.2660464250092929)"><svg viewBox="0 0 395.52 106.41857000371976" height="106.41857000371976" width="395.52"><g id="SvgjsG2666"><svg viewBox="0 0 395.52 106.41857000371976" height="106.41857000371976" width="395.52" id="SvgjsSvg2665"><g><svg viewBox="0 0 395.52 75.3908713692946" height="75.3908713692946" width="395.52"><g transform="matrix(1,0,0,1,0,0)"><svg width="395.52" viewBox="3.35 -36.15 192.79 36.75" height="75.3908713692946" data-palette-color="url(#bbe06a28-3330-409e-8f1a-3dd962b24496)"></svg></g></svg></g><g transform="matrix(1,0,0,1,0,93.1888467186722)"><svg viewBox="0 0 232.209792 13.229723285047577" height="13.229723285047577" width="232.209792"><g transform="matrix(1,0,0,1,0,0)"><svg width="232.209792" viewBox="2.15 -37 824.87 47" height="13.229723285047577" data-palette-color="url(#215d7e78-c2d4-4dbd-9b7a-67f18c336421)"><path d="M20.3 0.5L20.3 0.5Q16.5 0.5 13.2-0.88 9.9-2.25 7.43-4.73 4.95-7.2 3.55-10.45 2.15-13.7 2.15-17.5L2.15-17.5Q2.15-21.3 3.55-24.55 4.95-27.8 7.43-30.28 9.9-32.75 13.2-34.13 16.5-35.5 20.3-35.5L20.3-35.5Q22.75-35.5 25.05-34.95 27.35-34.4 29.2-33.35L29.2-33.35Q29.85-33 30.15-32.43 30.45-31.85 30.45-31.3L30.45-31.3Q30.45-30.25 29.78-29.48 29.1-28.7 28.1-28.7L28.1-28.7Q27.75-28.7 27.38-28.8 27-28.9 26.7-29.05L26.7-29.05Q25.3-29.75 23.7-30.13 22.1-30.5 20.3-30.5L20.3-30.5Q16.7-30.5 13.8-28.78 10.9-27.05 9.22-24.1 7.55-21.15 7.55-17.5L7.55-17.5Q7.55-13.9 9.22-10.93 10.9-7.95 13.8-6.23 16.7-4.5 20.3-4.5L20.3-4.5Q22.05-4.5 24-4.93 25.95-5.35 27.3-6.05L27.3-6.05 26.9-4.7 26.9-14.2 27.7-13.5 21.15-13.5Q20.05-13.5 19.33-14.2 18.6-14.9 18.6-16L18.6-16Q18.6-17.1 19.33-17.8 20.05-18.5 21.15-18.5L21.15-18.5 29.8-18.5Q30.85-18.5 31.58-17.78 32.3-17.05 32.3-15.95L32.3-15.95 32.3-4.85Q32.3-4.05 31.9-3.5 31.5-2.95 31-2.6L31-2.6Q28.75-1.2 26.03-0.35 23.3 0.5 20.3 0.5ZM50.3 0.5L50.3 0.5Q46.2 0.5 43.12-1.23 40.05-2.95 38.37-5.98 36.7-9 36.7-12.9L36.7-12.9Q36.7-17.3 38.47-20.43 40.25-23.55 43.12-25.23 46-26.9 49.2-26.9L49.2-26.9Q51.6-26.9 53.82-25.93 56.05-24.95 57.75-23.23 59.45-21.5 60.45-19.18 61.45-16.85 61.5-14.1L61.5-14.1Q61.45-13.1 60.7-12.45 59.95-11.8 58.95-11.8L58.95-11.8 39.55-11.8 38.35-16.05 57.15-16.05 56.2-15.15 56.2-16.4Q56.05-18.15 55-19.48 53.95-20.8 52.42-21.53 50.9-22.25 49.2-22.25L49.2-22.25Q47.7-22.25 46.3-21.78 44.9-21.3 43.85-20.25 42.8-19.2 42.15-17.48 41.5-15.75 41.5-13.2L41.5-13.2Q41.5-10.45 42.65-8.4 43.8-6.35 45.75-5.23 47.7-4.1 50.1-4.1L50.1-4.1Q51.9-4.1 53.1-4.48 54.3-4.85 55.1-5.4 55.9-5.95 56.5-6.45L56.5-6.45Q57.3-6.9 58-6.9L58-6.9Q58.9-6.9 59.5-6.28 60.1-5.65 60.1-4.8L60.1-4.8Q60.1-3.7 59-2.8L59-2.8Q57.65-1.5 55.27-0.5 52.9 0.5 50.3 0.5ZM66.55-26L66.55-26 78.3-26Q79.3-26 79.97-25.33 80.65-24.65 80.65-23.65L80.65-23.65Q80.65-22.7 79.97-22.05 79.3-21.4 78.3-21.4L78.3-21.4 66.55-21.4Q65.55-21.4 64.87-22.08 64.2-22.75 64.2-23.7L64.2-23.7Q64.2-24.7 64.87-25.35 65.55-26 66.55-26ZM71.8-32.5L71.8-32.5Q72.9-32.5 73.6-31.78 74.3-31.05 74.3-29.95L74.3-29.95 74.3-6.75Q74.3-5.85 74.6-5.3 74.9-4.75 75.42-4.55 75.95-4.35 76.5-4.35L76.5-4.35Q77.05-4.35 77.47-4.55 77.9-4.75 78.5-4.75L78.5-4.75Q79.1-4.75 79.6-4.2 80.1-3.65 80.1-2.7L80.1-2.7Q80.1-1.5 78.8-0.75 77.5 0 76 0L76 0Q75.15 0 74-0.15 72.85-0.3 71.77-0.9 70.7-1.5 70-2.83 69.3-4.15 69.3-6.55L69.3-6.55 69.3-29.95Q69.3-31.05 70.02-31.78 70.75-32.5 71.8-32.5ZM119.69-26.3L119.69-26.3Q120.74-26.3 121.47-25.58 122.19-24.85 122.19-23.75L122.19-23.75 122.19-10.6Q122.19-5.4 119.29-2.48 116.39 0.45 111.09 0.45L111.09 0.45Q105.84 0.45 102.97-2.48 100.09-5.4 100.09-10.6L100.09-10.6 100.09-23.75Q100.09-24.85 100.79-25.58 101.49-26.3 102.59-26.3L102.59-26.3Q103.64-26.3 104.37-25.58 105.09-24.85 105.09-23.75L105.09-23.75 105.09-10.6Q105.09-7.35 106.62-5.75 108.14-4.15 111.09-4.15L111.09-4.15Q114.09-4.15 115.64-5.75 117.19-7.35 117.19-10.6L117.19-10.6 117.19-23.75Q117.19-24.85 117.89-25.58 118.59-26.3 119.69-26.3ZM142.39-26.75L142.39-26.75Q145.89-26.75 148.61-25 151.34-23.25 152.94-20.23 154.54-17.2 154.54-13.2L154.54-13.2Q154.54-9.2 152.94-6.13 151.34-3.05 148.64-1.3 145.94 0.45 142.54 0.45L142.54 0.45Q140.64 0.45 138.94-0.15 137.24-0.75 135.94-1.73 134.64-2.7 133.81-3.8 132.99-4.9 132.79-5.85L132.79-5.85 134.14-6.5 134.14 7.45Q134.14 8.55 133.41 9.28 132.69 10 131.64 10L131.64 10Q130.54 10 129.84 9.28 129.14 8.55 129.14 7.45L129.14 7.45 129.14-23.85Q129.14-24.9 129.84-25.65 130.54-26.4 131.64-26.4L131.64-26.4Q132.69-26.4 133.41-25.65 134.14-24.9 134.14-23.85L134.14-23.85 134.14-20.4 133.34-20.85Q133.49-21.8 134.29-22.83 135.09-23.85 136.31-24.75 137.54-25.65 139.11-26.2 140.69-26.75 142.39-26.75ZM141.84-22.15L141.84-22.15Q139.44-22.15 137.66-20.98 135.89-19.8 134.89-17.8 133.89-15.8 133.89-13.2L133.89-13.2Q133.89-10.65 134.89-8.58 135.89-6.5 137.66-5.33 139.44-4.15 141.84-4.15L141.84-4.15Q144.19-4.15 145.94-5.33 147.69-6.5 148.71-8.58 149.74-10.65 149.74-13.2L149.74-13.2Q149.74-15.75 148.71-17.78 147.69-19.8 145.94-20.98 144.19-22.15 141.84-22.15ZM181.29-37L181.29-37Q182.34-37 183.06-36.3 183.79-35.6 183.79-34.45L183.79-34.45 183.79-2.55Q183.79-1.45 183.06-0.73 182.34 0 181.29 0L181.29 0Q180.19 0 179.49-0.73 178.79-1.45 178.79-2.55L178.79-2.55 178.79-6.15 179.79-6.1Q179.79-5.2 179.06-4.08 178.34-2.95 177.09-1.9 175.84-0.85 174.14-0.18 172.44 0.5 170.49 0.5L170.49 0.5Q167.09 0.5 164.31-1.28 161.54-3.05 159.94-6.13 158.34-9.2 158.34-13.2L158.34-13.2Q158.34-17.2 159.94-20.28 161.54-23.35 164.26-25.13 166.99-26.9 170.34-26.9L170.34-26.9Q172.44-26.9 174.26-26.2 176.09-25.5 177.44-24.4 178.79-23.3 179.56-22.08 180.34-20.85 180.34-19.75L180.34-19.75 178.79-19.6 178.79-34.45Q178.79-35.55 179.49-36.27 180.19-37 181.29-37ZM171.09-4.1L171.09-4.1Q173.44-4.1 175.21-5.3 176.99-6.5 177.99-8.55 178.99-10.6 178.99-13.2L178.99-13.2Q178.99-15.8 177.99-17.85 176.99-19.9 175.21-21.1 173.44-22.3 171.09-22.3L171.09-22.3Q168.79-22.3 166.99-21.1 165.19-19.9 164.19-17.85 163.19-15.8 163.19-13.2L163.19-13.2Q163.19-10.6 164.19-8.55 165.19-6.5 166.99-5.3 168.79-4.1 171.09-4.1ZM212.08-26.7L212.08-26.7Q213.13-26.7 213.86-25.98 214.58-25.25 214.58-24.15L214.58-24.15 214.58-2.55Q214.58-1.45 213.86-0.73 213.13 0 212.08 0L212.08 0Q210.98 0 210.28-0.73 209.58-1.45 209.58-2.55L209.58-2.55 209.58-6.15 210.58-6Q210.58-5.1 209.86-4 209.13-2.9 207.88-1.88 206.63-0.85 204.93-0.18 203.23 0.5 201.28 0.5L201.28 0.5Q197.83 0.5 195.08-1.28 192.33-3.05 190.73-6.15 189.13-9.25 189.13-13.2L189.13-13.2Q189.13-17.25 190.73-20.33 192.33-23.4 195.06-25.15 197.78-26.9 201.13-26.9L201.13-26.9Q203.28-26.9 205.11-26.2 206.93-25.5 208.28-24.4 209.63-23.3 210.38-22.08 211.13-20.85 211.13-19.75L211.13-19.75 209.58-19.6 209.58-24.15Q209.58-25.2 210.28-25.95 210.98-26.7 212.08-26.7ZM201.88-4.1L201.88-4.1Q204.23-4.1 206.01-5.3 207.78-6.5 208.78-8.58 209.78-10.65 209.78-13.2L209.78-13.2Q209.78-15.8 208.78-17.85 207.78-19.9 206.01-21.1 204.23-22.3 201.88-22.3L201.88-22.3Q199.58-22.3 197.78-21.1 195.98-19.9 194.98-17.85 193.98-15.8 193.98-13.2L193.98-13.2Q193.98-10.65 194.98-8.58 195.98-6.5 197.76-5.3 199.53-4.1 201.88-4.1ZM221.18-26L221.18-26 232.93-26Q233.93-26 234.61-25.33 235.28-24.65 235.28-23.65L235.28-23.65Q235.28-22.7 234.61-22.05 233.93-21.4 232.93-21.4L232.93-21.4 221.18-21.4Q220.18-21.4 219.51-22.08 218.83-22.75 218.83-23.7L218.83-23.7Q218.83-24.7 219.51-25.35 220.18-26 221.18-26ZM226.43-32.5L226.43-32.5Q227.53-32.5 228.23-31.78 228.93-31.05 228.93-29.95L228.93-29.95 228.93-6.75Q228.93-5.85 229.23-5.3 229.53-4.75 230.06-4.55 230.58-4.35 231.13-4.35L231.13-4.35Q231.68-4.35 232.11-4.55 232.53-4.75 233.13-4.75L233.13-4.75Q233.73-4.75 234.23-4.2 234.73-3.65 234.73-2.7L234.73-2.7Q234.73-1.5 233.43-0.75 232.13 0 230.63 0L230.63 0Q229.78 0 228.63-0.15 227.48-0.3 226.41-0.9 225.33-1.5 224.63-2.83 223.93-4.15 223.93-6.55L223.93-6.55 223.93-29.95Q223.93-31.05 224.66-31.78 225.38-32.5 226.43-32.5ZM252.58 0.5L252.58 0.5Q248.48 0.5 245.4-1.23 242.33-2.95 240.65-5.98 238.98-9 238.98-12.9L238.98-12.9Q238.98-17.3 240.75-20.43 242.53-23.55 245.4-25.23 248.28-26.9 251.48-26.9L251.48-26.9Q253.88-26.9 256.1-25.93 258.33-24.95 260.03-23.23 261.73-21.5 262.73-19.18 263.73-16.85 263.78-14.1L263.78-14.1Q263.73-13.1 262.98-12.45 262.23-11.8 261.23-11.8L261.23-11.8 241.83-11.8 240.63-16.05 259.43-16.05 258.48-15.15 258.48-16.4Q258.33-18.15 257.28-19.48 256.23-20.8 254.7-21.53 253.18-22.25 251.48-22.25L251.48-22.25Q249.98-22.25 248.58-21.78 247.18-21.3 246.13-20.25 245.08-19.2 244.43-17.48 243.78-15.75 243.78-13.2L243.78-13.2Q243.78-10.45 244.93-8.4 246.08-6.35 248.03-5.23 249.98-4.1 252.38-4.1L252.38-4.1Q254.18-4.1 255.38-4.48 256.58-4.85 257.38-5.4 258.18-5.95 258.78-6.45L258.78-6.45Q259.58-6.9 260.28-6.9L260.28-6.9Q261.18-6.9 261.78-6.28 262.38-5.65 262.38-4.8L262.38-4.8Q262.38-3.7 261.28-2.8L261.28-2.8Q259.93-1.5 257.55-0.5 255.18 0.5 252.58 0.5ZM290.53-37L290.53-37Q291.58-37 292.3-36.3 293.03-35.6 293.03-34.45L293.03-34.45 293.03-2.55Q293.03-1.45 292.3-0.73 291.58 0 290.53 0L290.53 0Q289.43 0 288.73-0.73 288.03-1.45 288.03-2.55L288.03-2.55 288.03-6.15 289.03-6.1Q289.03-5.2 288.3-4.08 287.58-2.95 286.33-1.9 285.08-0.85 283.38-0.18 281.68 0.5 279.73 0.5L279.73 0.5Q276.33 0.5 273.55-1.28 270.78-3.05 269.18-6.13 267.58-9.2 267.58-13.2L267.58-13.2Q267.58-17.2 269.18-20.28 270.78-23.35 273.5-25.13 276.23-26.9 279.58-26.9L279.58-26.9Q281.68-26.9 283.5-26.2 285.33-25.5 286.68-24.4 288.03-23.3 288.8-22.08 289.58-20.85 289.58-19.75L289.58-19.75 288.03-19.6 288.03-34.45Q288.03-35.55 288.73-36.27 289.43-37 290.53-37ZM280.33-4.1L280.33-4.1Q282.68-4.1 284.45-5.3 286.23-6.5 287.23-8.55 288.23-10.6 288.23-13.2L288.23-13.2Q288.23-15.8 287.23-17.85 286.23-19.9 284.45-21.1 282.68-22.3 280.33-22.3L280.33-22.3Q278.03-22.3 276.23-21.1 274.43-19.9 273.43-17.85 272.43-15.8 272.43-13.2L272.43-13.2Q272.43-10.6 273.43-8.55 274.43-6.5 276.23-5.3 278.03-4.1 280.33-4.1ZM344.52-26.55L344.52-26.55Q345.47-26.55 346.2-25.83 346.92-25.1 346.92-23.95L346.92-23.95Q346.92-23.7 346.87-23.45 346.82-23.2 346.72-23L346.72-23 339.07-1.6Q338.77-0.75 338.02-0.33 337.27 0.1 336.47 0L336.47 0Q335.02-0.1 334.32-1.6L334.32-1.6 328.67-16.6 329.82-16.5 324.62-1.6Q323.92-0.1 322.47 0L322.47 0Q321.72 0.1 320.95-0.33 320.17-0.75 319.87-1.6L319.87-1.6 312.17-23Q311.97-23.45 311.97-23.95L311.97-23.95Q311.97-25 312.65-25.78 313.32-26.55 314.47-26.55L314.47-26.55Q315.27-26.55 315.9-26.15 316.52-25.75 316.77-24.95L316.77-24.95 323.17-6.9 322.02-7 327.22-20.65Q327.87-22.2 329.52-22.2L329.52-22.2Q330.42-22.2 330.92-21.8 331.42-21.4 331.72-20.65L331.72-20.65 337.02-6.95 335.67-6.8 342.12-24.95Q342.62-26.55 344.52-26.55ZM356.72-23.95L356.72-2.55Q356.72-1.45 356.02-0.73 355.32 0 354.22 0L354.22 0Q353.17 0 352.44-0.73 351.72-1.45 351.72-2.55L351.72-2.55 351.72-23.95Q351.72-25.05 352.44-25.78 353.17-26.5 354.22-26.5L354.22-26.5Q355.32-26.5 356.02-25.78 356.72-25.05 356.72-23.95L356.72-23.95ZM354.17-29.8L354.17-29.8Q352.72-29.8 352.07-30.33 351.42-30.85 351.42-32.1L351.42-32.1 351.42-32.9Q351.42-34.15 352.12-34.65 352.82-35.15 354.22-35.15L354.22-35.15Q355.72-35.15 356.37-34.63 357.02-34.1 357.02-32.9L357.02-32.9 357.02-32.1Q357.02-30.8 356.34-30.3 355.67-29.8 354.17-29.8ZM363.12-26L363.12-26 374.87-26Q375.87-26 376.54-25.33 377.22-24.65 377.22-23.65L377.22-23.65Q377.22-22.7 376.54-22.05 375.87-21.4 374.87-21.4L374.87-21.4 363.12-21.4Q362.12-21.4 361.44-22.08 360.77-22.75 360.77-23.7L360.77-23.7Q360.77-24.7 361.44-25.35 362.12-26 363.12-26ZM368.37-32.5L368.37-32.5Q369.47-32.5 370.17-31.78 370.87-31.05 370.87-29.95L370.87-29.95 370.87-6.75Q370.87-5.85 371.17-5.3 371.47-4.75 371.99-4.55 372.52-4.35 373.07-4.35L373.07-4.35Q373.62-4.35 374.04-4.55 374.47-4.75 375.07-4.75L375.07-4.75Q375.67-4.75 376.17-4.2 376.67-3.65 376.67-2.7L376.67-2.7Q376.67-1.5 375.37-0.75 374.07 0 372.57 0L372.57 0Q371.72 0 370.57-0.15 369.42-0.3 368.34-0.9 367.27-1.5 366.57-2.83 365.87-4.15 365.87-6.55L365.87-6.55 365.87-29.95Q365.87-31.05 366.59-31.78 367.32-32.5 368.37-32.5ZM396.01-26.75L396.01-26.75Q399.46-26.75 401.36-25.28 403.26-23.8 404.04-21.3 404.81-18.8 404.81-15.8L404.81-15.8 404.81-2.55Q404.81-1.45 404.09-0.73 403.36 0 402.31 0L402.31 0Q401.21 0 400.51-0.73 399.81-1.45 399.81-2.55L399.81-2.55 399.81-15.8Q399.81-17.55 399.34-19 398.86-20.45 397.69-21.3 396.51-22.15 394.41-22.15L394.41-22.15Q392.46-22.15 390.94-21.3 389.41-20.45 388.59-19 387.76-17.55 387.76-15.8L387.76-15.8 387.76-2.55Q387.76-1.45 387.04-0.73 386.31 0 385.26 0L385.26 0Q384.16 0 383.46-0.73 382.76-1.45 382.76-2.55L382.76-2.55 382.76-34.45Q382.76-35.55 383.46-36.27 384.16-37 385.26-37L385.26-37Q386.31-37 387.04-36.27 387.76-35.55 387.76-34.45L387.76-34.45 387.76-20.8 386.86-20.3Q387.21-21.4 388.04-22.55 388.86-23.7 390.09-24.65 391.31-25.6 392.81-26.18 394.31-26.75 396.01-26.75ZM425.31-26L425.31-26 437.06-26Q438.06-26 438.73-25.33 439.41-24.65 439.41-23.65L439.41-23.65Q439.41-22.7 438.73-22.05 438.06-21.4 437.06-21.4L437.06-21.4 425.31-21.4Q424.31-21.4 423.63-22.08 422.96-22.75 422.96-23.7L422.96-23.7Q422.96-24.7 423.63-25.35 424.31-26 425.31-26ZM430.56-32.5L430.56-32.5Q431.66-32.5 432.36-31.78 433.06-31.05 433.06-29.95L433.06-29.95 433.06-6.75Q433.06-5.85 433.36-5.3 433.66-4.75 434.18-4.55 434.71-4.35 435.26-4.35L435.26-4.35Q435.81-4.35 436.23-4.55 436.66-4.75 437.26-4.75L437.26-4.75Q437.86-4.75 438.36-4.2 438.86-3.65 438.86-2.7L438.86-2.7Q438.86-1.5 437.56-0.75 436.26 0 434.76 0L434.76 0Q433.91 0 432.76-0.15 431.61-0.3 430.53-0.9 429.46-1.5 428.76-2.83 428.06-4.15 428.06-6.55L428.06-6.55 428.06-29.95Q428.06-31.05 428.78-31.78 429.51-32.5 430.56-32.5ZM458.21-26.75L458.21-26.75Q461.66-26.75 463.56-25.28 465.46-23.8 466.23-21.3 467.01-18.8 467.01-15.8L467.01-15.8 467.01-2.55Q467.01-1.45 466.28-0.73 465.56 0 464.51 0L464.51 0Q463.41 0 462.71-0.73 462.01-1.45 462.01-2.55L462.01-2.55 462.01-15.8Q462.01-17.55 461.53-19 461.06-20.45 459.88-21.3 458.71-22.15 456.61-22.15L456.61-22.15Q454.66-22.15 453.13-21.3 451.61-20.45 450.78-19 449.96-17.55 449.96-15.8L449.96-15.8 449.96-2.55Q449.96-1.45 449.23-0.73 448.51 0 447.46 0L447.46 0Q446.36 0 445.66-0.73 444.96-1.45 444.96-2.55L444.96-2.55 444.96-34.45Q444.96-35.55 445.66-36.27 446.36-37 447.46-37L447.46-37Q448.51-37 449.23-36.27 449.96-35.55 449.96-34.45L449.96-34.45 449.96-20.8 449.06-20.3Q449.41-21.4 450.23-22.55 451.06-23.7 452.28-24.65 453.51-25.6 455.01-26.18 456.51-26.75 458.21-26.75ZM485.95 0.5L485.95 0.5Q481.85 0.5 478.78-1.23 475.7-2.95 474.03-5.98 472.35-9 472.35-12.9L472.35-12.9Q472.35-17.3 474.13-20.43 475.9-23.55 478.78-25.23 481.65-26.9 484.85-26.9L484.85-26.9Q487.25-26.9 489.48-25.93 491.7-24.95 493.4-23.23 495.1-21.5 496.1-19.18 497.1-16.85 497.15-14.1L497.15-14.1Q497.1-13.1 496.35-12.45 495.6-11.8 494.6-11.8L494.6-11.8 475.2-11.8 474-16.05 492.8-16.05 491.85-15.15 491.85-16.4Q491.7-18.15 490.65-19.48 489.6-20.8 488.08-21.53 486.55-22.25 484.85-22.25L484.85-22.25Q483.35-22.25 481.95-21.78 480.55-21.3 479.5-20.25 478.45-19.2 477.8-17.48 477.15-15.75 477.15-13.2L477.15-13.2Q477.15-10.45 478.3-8.4 479.45-6.35 481.4-5.23 483.35-4.1 485.75-4.1L485.75-4.1Q487.55-4.1 488.75-4.48 489.95-4.85 490.75-5.4 491.55-5.95 492.15-6.45L492.15-6.45Q492.95-6.9 493.65-6.9L493.65-6.9Q494.55-6.9 495.15-6.28 495.75-5.65 495.75-4.8L495.75-4.8Q495.75-3.7 494.65-2.8L494.65-2.8Q493.3-1.5 490.93-0.5 488.55 0.5 485.95 0.5ZM521.85-34.45L521.85-2.55Q521.85-1.45 521.12-0.73 520.4 0 519.35 0L519.35 0Q518.3 0 517.57-0.73 516.85-1.45 516.85-2.55L516.85-2.55 516.85-34.45Q516.85-35.55 517.6-36.27 518.35-37 519.4-37L519.4-37Q520.5-37 521.17-36.27 521.85-35.55 521.85-34.45L521.85-34.45ZM550.64-26.7L550.64-26.7Q551.69-26.7 552.42-25.98 553.14-25.25 553.14-24.15L553.14-24.15 553.14-2.55Q553.14-1.45 552.42-0.73 551.69 0 550.64 0L550.64 0Q549.54 0 548.84-0.73 548.14-1.45 548.14-2.55L548.14-2.55 548.14-6.15 549.14-6Q549.14-5.1 548.42-4 547.69-2.9 546.44-1.88 545.19-0.85 543.5-0.18 541.79 0.5 539.84 0.5L539.84 0.5Q536.39 0.5 533.64-1.28 530.89-3.05 529.29-6.15 527.69-9.25 527.69-13.2L527.69-13.2Q527.69-17.25 529.29-20.33 530.89-23.4 533.62-25.15 536.34-26.9 539.69-26.9L539.69-26.9Q541.84-26.9 543.67-26.2 545.5-25.5 546.84-24.4 548.19-23.3 548.94-22.08 549.69-20.85 549.69-19.75L549.69-19.75 548.14-19.6 548.14-24.15Q548.14-25.2 548.84-25.95 549.54-26.7 550.64-26.7ZM540.44-4.1L540.44-4.1Q542.79-4.1 544.57-5.3 546.34-6.5 547.34-8.58 548.34-10.65 548.34-13.2L548.34-13.2Q548.34-15.8 547.34-17.85 546.34-19.9 544.57-21.1 542.79-22.3 540.44-22.3L540.44-22.3Q538.14-22.3 536.34-21.1 534.54-19.9 533.54-17.85 532.54-15.8 532.54-13.2L532.54-13.2Q532.54-10.65 533.54-8.58 534.54-6.5 536.32-5.3 538.09-4.1 540.44-4.1ZM559.74-26L559.74-26 571.49-26Q572.49-26 573.17-25.33 573.84-24.65 573.84-23.65L573.84-23.65Q573.84-22.7 573.17-22.05 572.49-21.4 571.49-21.4L571.49-21.4 559.74-21.4Q558.74-21.4 558.07-22.08 557.39-22.75 557.39-23.7L557.39-23.7Q557.39-24.7 558.07-25.35 558.74-26 559.74-26ZM564.99-32.5L564.99-32.5Q566.09-32.5 566.79-31.78 567.49-31.05 567.49-29.95L567.49-29.95 567.49-6.75Q567.49-5.85 567.79-5.3 568.09-4.75 568.62-4.55 569.14-4.35 569.69-4.35L569.69-4.35Q570.24-4.35 570.67-4.55 571.09-4.75 571.69-4.75L571.69-4.75Q572.29-4.75 572.79-4.2 573.29-3.65 573.29-2.7L573.29-2.7Q573.29-1.5 571.99-0.75 570.69 0 569.19 0L569.19 0Q568.34 0 567.19-0.15 566.04-0.3 564.97-0.9 563.89-1.5 563.19-2.83 562.49-4.15 562.49-6.55L562.49-6.55 562.49-29.95Q562.49-31.05 563.22-31.78 563.94-32.5 564.99-32.5ZM591.14 0.5L591.14 0.5Q587.04 0.5 583.96-1.23 580.89-2.95 579.21-5.98 577.54-9 577.54-12.9L577.54-12.9Q577.54-17.3 579.31-20.43 581.09-23.55 583.96-25.23 586.84-26.9 590.04-26.9L590.04-26.9Q592.44-26.9 594.66-25.93 596.89-24.95 598.59-23.23 600.29-21.5 601.29-19.18 602.29-16.85 602.34-14.1L602.34-14.1Q602.29-13.1 601.54-12.45 600.79-11.8 599.79-11.8L599.79-11.8 580.39-11.8 579.19-16.05 597.99-16.05 597.04-15.15 597.04-16.4Q596.89-18.15 595.84-19.48 594.79-20.8 593.26-21.53 591.74-22.25 590.04-22.25L590.04-22.25Q588.54-22.25 587.14-21.78 585.74-21.3 584.69-20.25 583.64-19.2 582.99-17.48 582.34-15.75 582.34-13.2L582.34-13.2Q582.34-10.45 583.49-8.4 584.64-6.35 586.59-5.23 588.54-4.1 590.94-4.1L590.94-4.1Q592.74-4.1 593.94-4.48 595.14-4.85 595.94-5.4 596.74-5.95 597.34-6.45L597.34-6.45Q598.14-6.9 598.84-6.9L598.84-6.9Q599.74-6.9 600.34-6.28 600.94-5.65 600.94-4.8L600.94-4.8Q600.94-3.7 599.84-2.8L599.84-2.8Q598.49-1.5 596.11-0.5 593.74 0.5 591.14 0.5ZM606.19-4.1L606.19-4.1Q605.74-4.8 605.79-5.73 605.84-6.65 606.84-7.3L606.84-7.3Q607.54-7.75 608.31-7.68 609.09-7.6 609.79-6.9L609.79-6.9Q611.19-5.35 612.91-4.45 614.64-3.55 617.09-3.55L617.09-3.55Q618.09-3.6 619.14-3.88 620.19-4.15 620.94-4.88 621.69-5.6 621.69-7L621.69-7Q621.69-8.25 620.89-9 620.09-9.75 618.79-10.23 617.49-10.7 615.99-11.1L615.99-11.1Q614.39-11.55 612.76-12.1 611.14-12.65 609.84-13.53 608.54-14.4 607.71-15.8 606.89-17.2 606.89-19.25L606.89-19.25Q606.89-21.6 608.21-23.3 609.54-25 611.66-25.95 613.79-26.9 616.29-26.9L616.29-26.9Q617.74-26.9 619.34-26.53 620.94-26.15 622.44-25.35 623.94-24.55 625.04-23.25L625.04-23.25Q625.54-22.6 625.61-21.7 625.69-20.8 624.79-20.1L624.79-20.1Q624.19-19.6 623.34-19.65 622.49-19.7 621.94-20.2L621.94-20.2Q620.99-21.4 619.49-22.08 617.99-22.75 616.09-22.75L616.09-22.75Q615.14-22.75 614.11-22.48 613.09-22.2 612.39-21.5 611.69-20.8 611.69-19.45L611.69-19.45Q611.69-18.2 612.51-17.45 613.34-16.7 614.69-16.2 616.04-15.7 617.64-15.3L617.64-15.3Q619.19-14.9 620.71-14.35 622.24-13.8 623.46-12.93 624.69-12.05 625.46-10.68 626.24-9.3 626.24-7.2L626.24-7.2Q626.24-4.75 624.81-3.03 623.39-1.3 621.21-0.4 619.04 0.5 616.64 0.5L616.64 0.5Q613.79 0.5 610.96-0.53 608.14-1.55 606.19-4.1ZM631.28-26L631.28-26 643.03-26Q644.03-26 644.71-25.33 645.38-24.65 645.38-23.65L645.38-23.65Q645.38-22.7 644.71-22.05 644.03-21.4 643.03-21.4L643.03-21.4 631.28-21.4Q630.28-21.4 629.61-22.08 628.93-22.75 628.93-23.7L628.93-23.7Q628.93-24.7 629.61-25.35 630.28-26 631.28-26ZM636.53-32.5L636.53-32.5Q637.63-32.5 638.33-31.78 639.03-31.05 639.03-29.95L639.03-29.95 639.03-6.75Q639.03-5.85 639.33-5.3 639.63-4.75 640.16-4.55 640.68-4.35 641.23-4.35L641.23-4.35Q641.78-4.35 642.21-4.55 642.63-4.75 643.23-4.75L643.23-4.75Q643.83-4.75 644.33-4.2 644.83-3.65 644.83-2.7L644.83-2.7Q644.83-1.5 643.53-0.75 642.23 0 640.73 0L640.73 0Q639.88 0 638.73-0.15 637.58-0.3 636.51-0.9 635.43-1.5 634.73-2.83 634.03-4.15 634.03-6.55L634.03-6.55 634.03-29.95Q634.03-31.05 634.76-31.78 635.48-32.5 636.53-32.5ZM678.03-26.75L678.03-26.75Q681.73-26.75 683.73-24.93 685.73-23.1 686.38-20L686.38-20 685.58-20.25 685.93-21.05Q686.58-22.35 687.9-23.68 689.23-25 691.08-25.88 692.93-26.75 695.03-26.75L695.03-26.75Q698.48-26.75 700.38-25.28 702.28-23.8 703.03-21.33 703.78-18.85 703.78-15.8L703.78-15.8 703.78-2.55Q703.78-1.45 703.08-0.73 702.38 0 701.28 0L701.28 0Q700.23 0 699.5-0.73 698.78-1.45 698.78-2.55L698.78-2.55 698.78-15.75Q698.78-17.5 698.3-18.95 697.83-20.4 696.65-21.28 695.48-22.15 693.43-22.15L693.43-22.15Q691.48-22.15 689.95-21.28 688.43-20.4 687.58-18.95 686.73-17.5 686.73-15.75L686.73-15.75 686.73-2.55Q686.73-1.45 686.03-0.73 685.33 0 684.23 0L684.23 0Q683.13 0 682.43-0.73 681.73-1.45 681.73-2.55L681.73-2.55 681.73-15.8Q681.73-17.55 681.25-19 680.78-20.45 679.63-21.3 678.48-22.15 676.43-22.15L676.43-22.15Q674.48-22.15 672.98-21.3 671.48-20.45 670.65-19 669.83-17.55 669.83-15.8L669.83-15.8 669.83-2.55Q669.83-1.45 669.1-0.73 668.38 0 667.33 0L667.33 0Q666.23 0 665.53-0.73 664.83-1.45 664.83-2.55L664.83-2.55 664.83-23.75Q664.83-24.85 665.53-25.58 666.23-26.3 667.33-26.3L667.33-26.3Q668.38-26.3 669.1-25.58 669.83-24.85 669.83-23.75L669.83-23.75 669.83-20.8 668.88-20.25Q669.23-21.35 670.03-22.5 670.83-23.65 672.05-24.6 673.28-25.55 674.78-26.15 676.28-26.75 678.03-26.75ZM735.78-13.15L735.78-13.15Q735.78-9.15 734-6.08 732.23-3 729.23-1.25 726.23 0.5 722.48 0.5L722.48 0.5Q718.78 0.5 715.75-1.25 712.73-3 710.95-6.08 709.18-9.15 709.18-13.15L709.18-13.15Q709.18-17.2 710.95-20.28 712.73-23.35 715.75-25.13 718.78-26.9 722.48-26.9L722.48-26.9Q726.23-26.9 729.23-25.13 732.23-23.35 734-20.28 735.78-17.2 735.78-13.15ZM730.78-13.15L730.78-13.15Q730.78-15.9 729.68-17.93 728.58-19.95 726.7-21.13 724.83-22.3 722.48-22.3L722.48-22.3Q720.18-22.3 718.3-21.13 716.43-19.95 715.3-17.93 714.18-15.9 714.18-13.15L714.18-13.15Q714.18-10.5 715.3-8.45 716.43-6.4 718.3-5.25 720.18-4.1 722.48-4.1L722.48-4.1Q724.83-4.1 726.7-5.25 728.58-6.4 729.68-8.45 730.78-10.5 730.78-13.15ZM741.52-26.55L741.52-26.55Q742.27-26.55 742.95-26.15 743.62-25.75 743.92-24.95L743.92-24.95 751.77-6.8 750.82-6.35 758.77-24.9Q759.47-26.55 761.02-26.5L761.02-26.5Q762.02-26.5 762.7-25.88 763.37-25.25 763.37-24.25L763.37-24.25Q763.37-23.95 763.27-23.63 763.17-23.3 763.02-23L763.02-23 753.52-1.6Q752.87-0.1 751.37 0L751.37 0Q750.62 0.1 749.9-0.33 749.17-0.75 748.77-1.6L748.77-1.6 739.32-23Q739.22-23.2 739.12-23.53 739.02-23.85 739.02-24.3L739.02-24.3Q739.02-25.05 739.7-25.8 740.37-26.55 741.52-26.55ZM773.17-23.95L773.17-2.55Q773.17-1.45 772.47-0.73 771.77 0 770.67 0L770.67 0Q769.62 0 768.9-0.73 768.17-1.45 768.17-2.55L768.17-2.55 768.17-23.95Q768.17-25.05 768.9-25.78 769.62-26.5 770.67-26.5L770.67-26.5Q771.77-26.5 772.47-25.78 773.17-25.05 773.17-23.95L773.17-23.95ZM770.62-29.8L770.62-29.8Q769.17-29.8 768.52-30.33 767.87-30.85 767.87-32.1L767.87-32.1 767.87-32.9Q767.87-34.15 768.57-34.65 769.27-35.15 770.67-35.15L770.67-35.15Q772.17-35.15 772.82-34.63 773.47-34.1 773.47-32.9L773.47-32.9 773.47-32.1Q773.47-30.8 772.8-30.3 772.12-29.8 770.62-29.8ZM791.92 0.5L791.92 0.5Q787.82 0.5 784.74-1.23 781.67-2.95 779.99-5.98 778.32-9 778.32-12.9L778.32-12.9Q778.32-17.3 780.09-20.43 781.87-23.55 784.74-25.23 787.62-26.9 790.82-26.9L790.82-26.9Q793.22-26.9 795.44-25.93 797.67-24.95 799.37-23.23 801.07-21.5 802.07-19.18 803.07-16.85 803.12-14.1L803.12-14.1Q803.07-13.1 802.32-12.45 801.57-11.8 800.57-11.8L800.57-11.8 781.17-11.8 779.97-16.05 798.77-16.05 797.82-15.15 797.82-16.4Q797.67-18.15 796.62-19.48 795.57-20.8 794.04-21.53 792.52-22.25 790.82-22.25L790.82-22.25Q789.32-22.25 787.92-21.78 786.52-21.3 785.47-20.25 784.42-19.2 783.77-17.48 783.12-15.75 783.12-13.2L783.12-13.2Q783.12-10.45 784.27-8.4 785.42-6.35 787.37-5.23 789.32-4.1 791.72-4.1L791.72-4.1Q793.52-4.1 794.72-4.48 795.92-4.85 796.72-5.4 797.52-5.95 798.12-6.45L798.12-6.45Q798.92-6.9 799.62-6.9L799.62-6.9Q800.52-6.9 801.12-6.28 801.72-5.65 801.72-4.8L801.72-4.8Q801.72-3.7 800.62-2.8L800.62-2.8Q799.27-1.5 796.89-0.5 794.52 0.5 791.92 0.5ZM806.97-4.1L806.97-4.1Q806.52-4.8 806.57-5.73 806.62-6.65 807.62-7.3L807.62-7.3Q808.32-7.75 809.09-7.68 809.87-7.6 810.57-6.9L810.57-6.9Q811.97-5.35 813.69-4.45 815.42-3.55 817.87-3.55L817.87-3.55Q818.87-3.6 819.92-3.88 820.97-4.15 821.72-4.88 822.47-5.6 822.47-7L822.47-7Q822.47-8.25 821.67-9 820.87-9.75 819.57-10.23 818.27-10.7 816.77-11.1L816.77-11.1Q815.17-11.55 813.54-12.1 811.92-12.65 810.62-13.53 809.32-14.4 808.49-15.8 807.67-17.2 807.67-19.25L807.67-19.25Q807.67-21.6 808.99-23.3 810.32-25 812.44-25.95 814.57-26.9 817.07-26.9L817.07-26.9Q818.52-26.9 820.12-26.53 821.72-26.15 823.22-25.35 824.72-24.55 825.82-23.25L825.82-23.25Q826.32-22.6 826.39-21.7 826.47-20.8 825.57-20.1L825.57-20.1Q824.97-19.6 824.12-19.65 823.27-19.7 822.72-20.2L822.72-20.2Q821.77-21.4 820.27-22.08 818.77-22.75 816.87-22.75L816.87-22.75Q815.92-22.75 814.89-22.48 813.87-22.2 813.17-21.5 812.47-20.8 812.47-19.45L812.47-19.45Q812.47-18.2 813.29-17.45 814.12-16.7 815.47-16.2 816.82-15.7 818.42-15.3L818.42-15.3Q819.97-14.9 821.49-14.35 823.02-13.8 824.24-12.93 825.47-12.05 826.24-10.68 827.02-9.3 827.02-7.2L827.02-7.2Q827.02-4.75 825.59-3.03 824.17-1.3 821.99-0.4 819.82 0.5 817.42 0.5L817.42 0.5Q814.57 0.5 811.74-0.53 808.92-1.55 806.97-4.1Z" opacity="1" transform="matrix(1,0,0,1,0,0)" fill="white" class="slogan-text-1" id="SvgjsPath2664"></path></svg></g></svg></g></svg></g></svg></g><g transform="matrix(1,0,0,1,0,0.2660464250093)"><svg viewBox="0 0 102.92231391173354 106.41857000371975" height="106.41857000371975" width="102.92231391173354"><g><svg xmlns="http://www.w3.org/2000/svg" xmlns:xlink="http://www.w3.org/1999/xlink" version="1.1" x="0" y="0" viewBox="7.487339512935998 6.066 84.025660487064 86.88" enable-background="new 0 0 100 100" xml:space="preserve" height="106.41857000371975" width="102.92231391173354" class="icon-icon-0" data-fill-palette-color="accent" id="SvgjsSvg2663"></svg></g></svg></g></svg></g><defs><mask></mask></defs><mask><g id="SvgjsG2662"><svg viewBox="0 0 395.5199999999999 78.21417365907116" height="78.21417365907116" width="395.5199999999999"><g><svg viewBox="0 0 540.837091193951 106.95066285373835" height="78.21417365907116" width="395.5199999999999"><g></g><g transform="matrix(1,0,0,1,145.31709119395097,0.2660464250092929)"><svg viewBox="0 0 395.52 106.41857000371976" height="106.41857000371976" width="395.52"><g id="SvgjsG2660"><svg viewBox="0 0 395.52 106.41857000371976" height="106.41857000371976" width="395.52" id="SvgjsSvg2659"><g><svg viewBox="0 0 395.52 75.3908713692946" height="75.3908713692946" width="395.52"><g transform="matrix(1,0,0,1,0,0)"><svg width="395.52" viewBox="3.35 -36.15 192.79 36.75" height="75.3908713692946" data-palette-color="url(#bbe06a28-3330-409e-8f1a-3dd962b24496)"></svg></g></svg></g><g transform="matrix(1,0,0,1,0,93.1888467186722)"><svg viewBox="0 0 232.209792 13.229723285047577" height="13.229723285047577" width="232.209792"><g transform="matrix(1,0,0,1,0,0)"><svg width="232.209792" viewBox="2.15 -37 824.87 47" height="13.229723285047577" data-palette-color="url(#215d7e78-c2d4-4dbd-9b7a-67f18c336421)"></svg></g></svg></g></svg></g></svg></g><g transform="matrix(1,0,0,1,0,0.2660464250093)"><svg viewBox="0 0 102.92231391173354 106.41857000371975" height="106.41857000371975" width="102.92231391173354"><g><svg xmlns="http://www.w3.org/2000/svg" xmlns:xlink="http://www.w3.org/1999/xlink" version="1.1" x="0" y="0" viewBox="7.487339512935998 6.066 84.025660487064 86.88" enable-background="new 0 0 100 100" xml:space="preserve" height="106.41857000371975" width="102.92231391173354" class="icon-icon-0" data-fill-palette-color="accent" id="SvgjsSvg2657"></svg></g></svg></g></svg></g><defs><mask></mask></defs></svg></g></mask></svg></g></mask><linearGradient x1="0" x2="1" y1="0.548" y2="0.55" id="215d7e78-c2d4-4dbd-9b7a-67f18c336421"><stop stop-color="#ff6cab" offset="0"></stop><stop stop-color="#7366ff" offset="1"></stop></linearGradient><rect width="395.5199999999999" height="78.21417365907116" fill="url(#215d7e78-c2d4-4dbd-9b7a-67f18c336421)" mask="url(#356a651f-f9d0-4a0f-a124-dac83742e132)" data-fill-palette-color="secondary"></rect><mask id="3a1faab4-8a2b-4448-bb70-cfd17c31d433"><g id="SvgjsG2686"><svg viewBox="0 0 395.5199999999999 78.21417365907116" height="78.21417365907116" width="395.5199999999999"><g><svg viewBox="0 0 540.837091193951 106.95066285373835" height="78.21417365907116" width="395.5199999999999"><g></g><g transform="matrix(1,0,0,1,145.31709119395097,0.2660464250092929)"><svg viewBox="0 0 395.52 106.41857000371976" height="106.41857000371976" width="395.52"><g id="SvgjsG2685"><svg viewBox="0 0 395.52 106.41857000371976" height="106.41857000371976" width="395.52" id="SvgjsSvg2684"><g><svg viewBox="0 0 395.52 75.3908713692946" height="75.3908713692946" width="395.52"><g transform="matrix(1,0,0,1,0,0)"><svg width="395.52" viewBox="3.35 -36.15 192.79 36.75" height="75.3908713692946" data-palette-color="url(#bbe06a28-3330-409e-8f1a-3dd962b24496)"></svg></g></svg></g><g transform="matrix(1,0,0,1,0,93.1888467186722)"><svg viewBox="0 0 232.209792 13.229723285047577" height="13.229723285047577" width="232.209792"><g transform="matrix(1,0,0,1,0,0)"><svg width="232.209792" viewBox="2.15 -37 824.87 47" height="13.229723285047577" data-palette-color="url(#215d7e78-c2d4-4dbd-9b7a-67f18c336421)"></svg></g></svg></g></svg></g></svg></g><g transform="matrix(1,0,0,1,0,0.2660464250093)"><svg viewBox="0 0 102.92231391173354 106.41857000371975" height="106.41857000371975" width="102.92231391173354"><g><svg xmlns="http://www.w3.org/2000/svg" xmlns:xlink="http://www.w3.org/1999/xlink" version="1.1" x="0" y="0" viewBox="7.487339512935998 6.066 84.025660487064 86.88" enable-background="new 0 0 100 100" xml:space="preserve" height="106.41857000371975" width="102.92231391173354" class="icon-icon-0" data-fill-palette-color="accent" id="SvgjsSvg2683"><rect x="34.571" y="16.321" fill="white" width="5.716" height="5.716"></rect><rect x="34.571" y="28.368" fill="white" width="5.716" height="5.716"></rect><rect x="34.571" y="40.416" fill="white" width="5.716" height="5.716"></rect><rect x="34.571" y="52.464" fill="white" width="5.716" height="5.716"></rect><rect x="80.349" y="16.321" fill="white" width="5.716" height="5.716"></rect><rect x="80.349" y="28.368" fill="white" width="5.716" height="5.716"></rect><rect x="80.349" y="40.416" fill="white" width="5.716" height="5.716"></rect><rect x="80.349" y="52.464" fill="white" width="5.716" height="5.716"></rect><path fill="white" d="M52.324 50.356c-0.188 0-0.375-0.048-0.546-0.142-0.354-0.199-0.572-0.572-0.572-0.975V26.271c0-0.404 0.218-0.777 0.572-0.975 0.354-0.194 0.786-0.19 1.13 0.024l18.704 11.483c0.332 0.203 0.532 0.563 0.532 0.951 0 0.389-0.201 0.749-0.532 0.951L52.909 50.19C52.73 50.301 52.527 50.356 52.324 50.356zM53.442 28.268v18.974l15.45-9.488L53.442 28.268z"></path><path fill="white" d="M81.978 8.301c4.025 0 7.3 3.275 7.3 7.3V59.3c0 4.025-3.275 7.3-7.3 7.3H38.279c-4.025 0-7.3-3.275-7.3-7.3V15.601c0-4.025 3.275-7.3 7.3-7.3H81.978M81.978 6.066H38.279c-5.266 0-9.535 4.269-9.535 9.535V59.3c0 5.266 4.269 9.535 9.535 9.535h43.699c5.266 0 9.535-4.269 9.535-9.535V15.601C91.512 10.335 87.243 6.066 81.978 6.066L81.978 6.066z"></path><path fill="white" d="M74.63 71.069h-2.299l0.225 0.924c0.478 1.957 0.164 3.985-0.884 5.706-1.048 1.722-2.704 2.931-4.661 3.409l-38.573 9.386c-1.953 0.474-3.98 0.164-5.706-0.886-1.722-1.047-2.931-2.704-3.409-4.661l-9.383-38.57c-0.478-1.957-0.161-3.985 0.886-5.706 1.047-1.722 2.704-2.931 4.661-3.409l11.023-2.682V32.28l-11.551 2.809c-2.538 0.618-4.683 2.187-6.043 4.419-1.357 2.23-1.765 4.858-1.148 7.396l9.386 38.57c0.615 2.538 2.184 4.683 4.417 6.043 1.552 0.943 3.293 1.429 5.065 1.429 0.775 0 1.558-0.094 2.331-0.284l38.573-9.386c2.538-0.615 4.683-2.184 6.04-4.417 1.36-2.23 1.765-4.858 1.148-7.396L74.63 71.069z"></path></svg></g></svg></g></svg></g><defs><mask></mask></defs><mask><g id="SvgjsG2682"><svg viewBox="0 0 395.5199999999999 78.21417365907116" height="78.21417365907116" width="395.5199999999999"><g><svg viewBox="0 0 540.837091193951 106.95066285373835" height="78.21417365907116" width="395.5199999999999"><g></g><g transform="matrix(1,0,0,1,145.31709119395097,0.2660464250092929)"><svg viewBox="0 0 395.52 106.41857000371976" height="106.41857000371976" width="395.52"><g id="SvgjsG2680"><svg viewBox="0 0 395.52 106.41857000371976" height="106.41857000371976" width="395.52" id="SvgjsSvg2679"><g><svg viewBox="0 0 395.52 75.3908713692946" height="75.3908713692946" width="395.52"><g transform="matrix(1,0,0,1,0,0)"><svg width="395.52" viewBox="3.35 -36.15 192.79 36.75" height="75.3908713692946" data-palette-color="url(#bbe06a28-3330-409e-8f1a-3dd962b24496)"></svg></g></svg></g><g transform="matrix(1,0,0,1,0,93.1888467186722)"><svg viewBox="0 0 232.209792 13.229723285047577" height="13.229723285047577" width="232.209792"><g transform="matrix(1,0,0,1,0,0)"><svg width="232.209792" viewBox="2.15 -37 824.87 47" height="13.229723285047577" data-palette-color="url(#215d7e78-c2d4-4dbd-9b7a-67f18c336421)"></svg></g></svg></g></svg></g></svg></g><g transform="matrix(1,0,0,1,0,0.2660464250093)"><svg viewBox="0 0 102.92231391173354 106.41857000371975" height="106.41857000371975" width="102.92231391173354"><g><svg xmlns="http://www.w3.org/2000/svg" xmlns:xlink="http://www.w3.org/1999/xlink" version="1.1" x="0" y="0" viewBox="7.487339512935998 6.066 84.025660487064 86.88" enable-background="new 0 0 100 100" xml:space="preserve" height="106.41857000371975" width="102.92231391173354" class="icon-icon-0" data-fill-palette-color="accent" id="SvgjsSvg2677"></svg></g></svg></g></svg></g><defs><mask></mask></defs></svg></g></mask><mask><g id="SvgjsG2676"><svg viewBox="0 0 395.5199999999999 78.21417365907116" height="78.21417365907116" width="395.5199999999999"><g><svg viewBox="0 0 540.837091193951 106.95066285373835" height="78.21417365907116" width="395.5199999999999"><g></g><g transform="matrix(1,0,0,1,145.31709119395097,0.2660464250092929)"><svg viewBox="0 0 395.52 106.41857000371976" height="106.41857000371976" width="395.52"><g id="SvgjsG2675"><svg viewBox="0 0 395.52 106.41857000371976" height="106.41857000371976" width="395.52" id="SvgjsSvg2674"><g><svg viewBox="0 0 395.52 75.3908713692946" height="75.3908713692946" width="395.52"><g transform="matrix(1,0,0,1,0,0)"><svg width="395.52" viewBox="3.35 -36.15 192.79 36.75" height="75.3908713692946" data-palette-color="url(#bbe06a28-3330-409e-8f1a-3dd962b24496)"></svg></g></svg></g><g transform="matrix(1,0,0,1,0,93.1888467186722)"><svg viewBox="0 0 232.209792 13.229723285047577" height="13.229723285047577" width="232.209792"><g transform="matrix(1,0,0,1,0,0)"><svg width="232.209792" viewBox="2.15 -37 824.87 47" height="13.229723285047577" data-palette-color="url(#215d7e78-c2d4-4dbd-9b7a-67f18c336421)"></svg></g></svg></g></svg></g></svg></g><g transform="matrix(1,0,0,1,0,0.2660464250093)"><svg viewBox="0 0 102.92231391173354 106.41857000371975" height="106.41857000371975" width="102.92231391173354"><g><svg xmlns="http://www.w3.org/2000/svg" xmlns:xlink="http://www.w3.org/1999/xlink" version="1.1" x="0" y="0" viewBox="7.487339512935998 6.066 84.025660487064 86.88" enable-background="new 0 0 100 100" xml:space="preserve" height="106.41857000371975" width="102.92231391173354" class="icon-icon-0" data-fill-palette-color="accent" id="SvgjsSvg2672"></svg></g></svg></g></svg></g><defs><mask></mask></defs><mask><g id="SvgjsG2671"><svg viewBox="0 0 395.5199999999999 78.21417365907116" height="78.21417365907116" width="395.5199999999999"><g><svg viewBox="0 0 540.837091193951 106.95066285373835" height="78.21417365907116" width="395.5199999999999"><g></g><g transform="matrix(1,0,0,1,145.31709119395097,0.2660464250092929)"><svg viewBox="0 0 395.52 106.41857000371976" height="106.41857000371976" width="395.52"><g id="SvgjsG2670"><svg viewBox="0 0 395.52 106.41857000371976" height="106.41857000371976" width="395.52" id="SvgjsSvg2669"><g><svg viewBox="0 0 395.52 75.3908713692946" height="75.3908713692946" width="395.52"><g transform="matrix(1,0,0,1,0,0)"><svg width="395.52" viewBox="3.35 -36.15 192.79 36.75" height="75.3908713692946" data-palette-color="url(#bbe06a28-3330-409e-8f1a-3dd962b24496)"></svg></g></svg></g><g transform="matrix(1,0,0,1,0,93.1888467186722)"><svg viewBox="0 0 232.209792 13.229723285047577" height="13.229723285047577" width="232.209792"><g transform="matrix(1,0,0,1,0,0)"><svg width="232.209792" viewBox="2.15 -37 824.87 47" height="13.229723285047577" data-palette-color="url(#215d7e78-c2d4-4dbd-9b7a-67f18c336421)"></svg></g></svg></g></svg></g></svg></g><g transform="matrix(1,0,0,1,0,0.2660464250093)"><svg viewBox="0 0 102.92231391173354 106.41857000371975" height="106.41857000371975" width="102.92231391173354"><g><svg xmlns="http://www.w3.org/2000/svg" xmlns:xlink="http://www.w3.org/1999/xlink" version="1.1" x="0" y="0" viewBox="7.487339512935998 6.066 84.025660487064 86.88" enable-background="new 0 0 100 100" xml:space="preserve" height="106.41857000371975" width="102.92231391173354" class="icon-icon-0" data-fill-palette-color="accent" id="SvgjsSvg2668"></svg></g></svg></g></svg></g><defs><mask></mask></defs></svg></g></mask></svg></g></mask></svg></g></mask><linearGradient x1="0" x2="1" y1="0.5" y2="0.5" id="0eff22f8-eac6-4a55-87b0-06af7d763946"><stop stop-color="#ffa62e" offset="0"></stop><stop stop-color="#f71b3d" offset="1"></stop></linearGradient><rect width="395.5199999999999" height="78.21417365907116" fill="url(#0eff22f8-eac6-4a55-87b0-06af7d763946)" mask="url(#3a1faab4-8a2b-4448-bb70-cfd17c31d433)" data-fill-palette-color="accent"></rect></svg><rect width="395.5199999999999" height="78.21417365907116" fill="none" stroke="none" visibility="hidden"></rect></g></svg></g></svg>